<?xml version="1.0" encoding="UTF-8"?>
<svg id="Layer_2" data-name="Layer 2" xmlns="http://www.w3.org/2000/svg" xmlns:xlink="http://www.w3.org/1999/xlink" viewBox="0 0 1041.34 187.25">
  <defs>
    <style>
      .cls-1 {
        fill: url(#linear-gradient-2);
      }

      .cls-2 {
        fill: url(#linear-gradient-4);
      }

      .cls-3 {
        fill: url(#linear-gradient-3);
      }

      .cls-4 {
        fill: #1a1a1a;
      }

      .cls-5 {
        fill: url(#linear-gradient);
      }
    </style>
    <linearGradient id="linear-gradient" x1="116.81" y1="75.54" x2="186.02" y2="75.54" gradientUnits="userSpaceOnUse">
      <stop offset="0" stop-color="#15876b"/>
      <stop offset="1" stop-color="#127259"/>
    </linearGradient>
    <linearGradient id="linear-gradient-2" x1="0" y1="58.49" x2="166.33" y2="58.49" gradientUnits="userSpaceOnUse">
      <stop offset="0" stop-color="#00b58d"/>
      <stop offset="1" stop-color="#028e69"/>
    </linearGradient>
    <linearGradient id="linear-gradient-3" x1="34.71" y1="140.59" x2="187.17" y2="140.59" gradientUnits="userSpaceOnUse">
      <stop offset="0" stop-color="#193744"/>
      <stop offset="1" stop-color="#224b56"/>
    </linearGradient>
    <linearGradient id="linear-gradient-4" x1="21.35" y1="112.31" x2="102.33" y2="112.31" xlink:href="#linear-gradient-3"/>
  </defs>
  <g id="Layer_1-2" data-name="Layer 1">
    <g>
      <path class="cls-5" d="M186.02,78.94c-4.79-.12-9.69.52-14.35,1.68-4.3,1.07-8.46,2.67-12.37,4.77-1.03.55-1.91.96-2.78,1.29-3.21,1.23-7.33,3.66-12.25,7.22-3.97,2.88-6.24,5.02-9.38,7.98-1.13,1.06-2.4,2.26-3.89,3.63-4.31,3.94-9.08,7.58-14.2,10.85,1.96-2.84,3.66-5.86,5.06-9.01,1.18-2.65,2.15-5.43,2.9-8.25.89-4.27,1.04-8.63.44-12.94-.56-4.03-1.76-7.94-3.57-11.6-.81-1.56-1.75-3.04-2.81-4.44,5.93-8.21,13.06-15.43,21.19-21.46,8-5.93,16.83-10.62,26.25-13.91,10.14,12.49,17.12,27.63,19.75,44.2Z"/>
      <path class="cls-1" d="M118.52,69.69c-1.8-2.31-3.91-4.37-6.26-6.09-5.22-3.83-10.53-5.27-14.08-5.81-4.58-.63-11.66-.76-19.41,2.23-2.32.9-4.58,2.03-6.7,3.37-5.17,3.26-9.01,8.29-10.81,14.17-.58,1.88-1.03,3.8-1.34,5.74-.27,1.69-.45,3.38-.51,5.08-.17,4.35.32,8.71,1.48,12.95l.04.15.16.02c3.08.51,11.08,1.18,19-3.58,8.31-4.99,11.45-12.93,12.48-16.44,0,0,0-.02,0-.03.02.1.04.21.06.33.33,1.98.5,4.81.58,7.04.08,2.4-.26,4.74-1.03,6.93-2.88,8.2-11.09,21.87-33.71,21.21-13.71-.39-26.85-5.87-37.19-11.83-10.66-6.13-18.35-12.77-20.66-14.84h0c-.3-.26-.5-.46-.61-.56,0,0,0,0-.01-.01.02-.6.05-1.2.09-1.8,0-.18.02-.35.03-.53C3.34,38.66,44.01,0,93.54,0c29.14,0,55.21,13.38,72.4,34.33.07-.02.15-.05.22-.08l.16.47s-.04.01-.06.02c-9.42,3.29-18.25,7.97-26.25,13.91-8.13,6.03-15.26,13.25-21.19,21.46"/>
      <g>
        <path class="cls-3" d="M187.17,93.92c-.16,51.49-42.1,93.33-93.62,93.33-22.27,0-42.75-7.81-58.83-20.85,6.5,1.77,13.26,2.67,20.02,2.67,3.96,0,7.93-.31,11.83-.93,10.55-1.68,20.85-5.67,29.79-11.56,4.98-3.04,9.71-6.55,14.06-10.44,4.27-3.82,6.97-6.95,9.83-10.26,2.02-2.34,4.11-4.76,6.97-7.71,5.03-5.19,10.62-10.1,16.6-14.61,7.65-6.15,16.13-11.06,25.2-14.59,5.85-2.28,11.96-3.98,18.17-5.06Z"/>
        <path class="cls-2" d="M102.22,109.88c-.92,5.96-3.62,17.58-12.8,28.09-3.5,4.01-9.59,10.97-20.11,13.8-.31.08-.61.15-.92.23-7.77,1.86-15.96.45-22.85-3.6-3.92-2.3-8.32-5.6-12.34-10.3-11.45-13.35-11.88-28.67-11.85-32.97,10.35,5.95,23.48,11.44,37.19,11.83,22.61.65,30.83-13.01,33.71-21.21.77-2.19,1.12-4.53,1.03-6.93-.08-2.23-.24-5.05-.58-7.04-.02-.11-.04-.22-.06-.33,0,0,0,.02,0,.03l-2.3-9.67c.97,1.34,1.93,2.69,2.9,4.03,3.15,4.37,5.52,9.25,6.95,14.45.38,1.41.74,2.9,1.04,4.46,1.16,5.99,1.23,11.21,1,15.13Z"/>
      </g>
      <path class="cls-4" d="M339.49,84.34c-4.16,7.69-10.67,13.88-19.53,18.58-8.86,4.71-20.04,7.06-33.52,7.06h-27.52v63.05h-32.93V8.83h60.46c12.7,0,23.52,2.2,32.46,6.59,8.94,4.39,15.64,10.43,20.11,18.11,4.47,7.69,6.71,16.39,6.71,26.11,0,8.79-2.08,17.02-6.23,24.7ZM305.26,77.17c4.39-4.15,6.59-10,6.59-17.53,0-16-8.94-24-26.82-24h-26.11v47.75h26.11c9.09,0,15.84-2.08,20.23-6.23Z"/>
      <path class="cls-4" d="M480.75,8.83v26.58h-43.76v137.62h-32.93V35.41h-43.76V8.83h120.45Z"/>
      <path class="cls-4" d="M537.68,8.83v164.2h-32.93V8.83h32.93Z"/>
      <path class="cls-4" d="M717.65,8.83l-60.22,164.2h-39.99l-60.22-164.2h35.29l45.17,130.56,44.93-130.56h35.05Z"/>
      <path class="cls-4" d="M770.34,8.83v164.2h-32.93V8.83h32.93Z"/>
      <path class="cls-4" d="M828.56,168.8c-9.17-3.92-16.43-9.56-21.76-16.94-5.33-7.37-8.08-16.07-8.23-26.11h35.29c.47,6.74,2.86,12.08,7.18,16,4.31,3.92,10.23,5.88,17.76,5.88s13.72-1.84,18.11-5.53c4.39-3.68,6.59-8.51,6.59-14.47,0-4.86-1.49-8.86-4.47-12-2.98-3.13-6.71-5.61-11.17-7.41-4.47-1.8-10.63-3.8-18.47-6-10.67-3.13-19.33-6.23-25.99-9.29-6.67-3.06-12.39-7.68-17.17-13.88-4.79-6.19-7.18-14.47-7.18-24.82,0-9.72,2.43-18.19,7.29-25.41,4.86-7.21,11.68-12.74,20.47-16.58,8.78-3.84,18.82-5.76,30.11-5.76,16.94,0,30.7,4.12,41.29,12.35,10.59,8.23,16.43,19.72,17.53,34.46h-36.23c-.32-5.65-2.71-10.31-7.17-14-4.47-3.68-10.39-5.53-17.76-5.53-6.43,0-11.57,1.65-15.41,4.94-3.84,3.29-5.76,8.08-5.76,14.35,0,4.39,1.45,8.04,4.35,10.94,2.9,2.9,6.51,5.26,10.82,7.06,4.31,1.8,10.39,3.88,18.23,6.23,10.66,3.14,19.37,6.27,26.11,9.41,6.74,3.14,12.55,7.84,17.41,14.11,4.86,6.27,7.29,14.51,7.29,24.7,0,8.79-2.28,16.94-6.82,24.47-4.55,7.53-11.21,13.53-20,18-8.79,4.47-19.21,6.7-31.29,6.7-11.45,0-21.76-1.96-30.94-5.88Z"/>
      <path class="cls-4" d="M979,35.41v41.17h55.28v26.11h-55.28v43.52h62.34v26.82h-95.27V8.59h95.27v26.82h-62.34Z"/>
    </g>
  </g>
</svg>